<svg xmlns="http://www.w3.org/2000/svg" xmlns:xlink="http://www.w3.org/1999/xlink" width="4722.3" height="2539.54" viewBox="-669.65 -2087.89 4722.3 2539.54"><defs><style type="text/css">.l16d0,rect{fill:none}.l28d3,.l29d3{fill-opacity:.5}.l29d3{fill:#666}.l28d3{fill:#7b7c7f}@media (prefers-color-scheme:dark){.l11d1{fill:#fff}.l28d3,.l29d3{fill:#fafcf5;fill-opacity:.5}.l29d3{fill:#d1d1d1}}.l14d0,.l225t0,.l39t0{fill-opacity:0}</style><g id="Waveguide$Coplanar$3"><polygon points="3798 326 3612 574 3652 604 3838 356" class="l14d0"/><polygon points="3652 1196 3612 1226 3798 1474 3838 1444" class="l14d0"/><text class="l225t0" dominant-baseline="central" text-anchor="middle" transform="scale(1 -1) translate(0.0 -0.0)">base</text><text class="l225t0" dominant-baseline="central" text-anchor="middle" transform="scale(1 -1) translate(3705.0 -450.0)">port_a</text><text class="l225t0" dominant-baseline="central" text-anchor="middle" transform="scale(1 -1) translate(4041.0 -702.0)">port_a_corner</text><text class="l225t0" dominant-baseline="central" text-anchor="middle" transform="scale(1 -1) translate(3705.0 -1350.0)">port_b</text><text class="l225t0" dominant-baseline="central" text-anchor="middle" transform="scale(1 -1) translate(4041.0 -1098.0)">port_b_corner</text><text class="l39t0" dominant-baseline="central" text-anchor="middle" transform="scale(1 -1) translate(3705.0 -450.0)">a</text><text class="l39t0" dominant-baseline="central" text-anchor="middle" transform="scale(1 -1) translate(3705.0 -1350.0)">b</text><use transform="translate(3705.0 450.0) rotate(216.86989764584402) scale(1.0)" xlink:href="#Waveguide$Coplanar$Straight$8"/><use transform="translate(3105.0 525.0) rotate(306.86989764584405) scale(1.0)" xlink:href="#Waveguide$Coplanar$Curved$3"/><use transform="translate(2853.0099999999998 188.99) rotate(143.13010235415598) scale(1.0)" xlink:href="#Waveguide$Coplanar$Straight$9"/><use transform="translate(2925.0 660.0) rotate(233.13010235415598) scale(1.0)" xlink:href="#Waveguide$Coplanar$Curved$1"/><use transform="translate(2505.0 659.99) rotate(90.0)" xlink:href="#Waveguide$Coplanar$Straight$4"/><use transform="translate(2925.0 1140.0) rotate(180.0)" xlink:href="#Waveguide$Coplanar$Curved$1"/><use transform="translate(2672.99 1475.9899999999998) rotate(36.86989764584401) scale(1.0)" xlink:href="#Waveguide$Coplanar$Straight$5"/><use transform="translate(3105.0 1275.0) rotate(126.86989764584402) scale(1.0)" xlink:href="#Waveguide$Coplanar$Curved$2"/><use transform="translate(3356.9900000000002 1611.01) rotate(323.13010235415595) scale(1.0)" xlink:href="#Waveguide$Coplanar$Straight$10"/></g><g id="Waveguide$Coplanar$Straight$5"><polygon points="0 45 0 105 225.02 105 225.02 45" class="l11d1"/><polygon points="0 -105 0 -45 225.02 -45 225.02 -105" class="l11d1"/><polygon points="0 -155 0 155 225.02 155 225.02 -155" class="l14d0"/><polygon points="0 -45 0 45 225.02 45 225.02 -45" class="l16d0"/><text class="l225t0" dominant-baseline="central" text-anchor="middle" transform="scale(1 -1) translate(0.0 -0.0)">base</text></g><g id="Waveguide$Coplanar$Straight$8"><polygon points="0 45 0 105 435.01 105 435.01 45" class="l11d1"/><polygon points="0 -105 0 -45 435.01 -45 435.01 -105" class="l11d1"/><polygon points="0 -155 0 155 435.01 155 435.01 -155" class="l14d0"/><polygon points="0 -45 0 45 435.01 45 435.01 -45" class="l16d0"/><text class="l225t0" dominant-baseline="central" text-anchor="middle" transform="scale(1 -1) translate(0.0 -0.0)">base</text></g><g id="Waveguide$Coplanar$Straight$7"><polygon points="0 45 0 105 60.01 105 60.01 45" class="l11d1"/><polygon points="0 -105 0 -45 60.01 -45 60.01 -105" class="l11d1"/><polygon points="0 -155 0 155 60.01 155 60.01 -155" class="l14d0"/><polygon points="0 -45 0 45 60.01 45 60.01 -45" class="l16d0"/><text class="l225t0" dominant-baseline="central" text-anchor="middle" transform="scale(1 -1) translate(0.0 -0.0)">base</text></g><g id="Waveguide$Composite$3"><text class="l225t0" dominant-baseline="central" text-anchor="middle" transform="scale(1 -1) translate(0.0 -0.0)">base</text><text class="l225t0" dominant-baseline="central" text-anchor="middle" transform="scale(1 -1) translate(3705.0 -450.0)">port_a</text><text class="l225t0" dominant-baseline="central" text-anchor="middle" transform="scale(1 -1) translate(4041.0 -702.0)">port_a_corner</text><text class="l225t0" dominant-baseline="central" text-anchor="middle" transform="scale(1 -1) translate(3705.0 -1350.0)">port_b</text><text class="l225t0" dominant-baseline="central" text-anchor="middle" transform="scale(1 -1) translate(4041.0 -1098.0)">port_b_corner</text><text class="l39t0" dominant-baseline="central" text-anchor="middle" transform="scale(1 -1) translate(3705.0 -450.0)">a</text><text class="l39t0" dominant-baseline="central" text-anchor="middle" transform="scale(1 -1) translate(3705.0 -1350.0)">b</text><use transform="translate(0.0 0.0)" xlink:href="#Waveguide$Coplanar$3"/></g><g id="Waveguide$Coplanar$Curved"><polygon points="20.65 -374.43 17.35 -314.52 33.25 -313.64 64.72 -308.69 95.53 -300.59 125.37 -289.42 153.92 -275.29 180.91 -258.36 206.05 -238.8 229.08 -216.79 249.78 -192.58 267.94 -166.4 283.35 -138.52 295.88 -109.23 305.39 -78.83 311.79 -47.62 315 -15.93 315 0 375 0 375 -18.96 371.17 -56.69 363.56 -93.85 352.24 -130.04 337.33 -164.91 318.97 -198.1 297.36 -229.26 272.72 -258.09 245.29 -284.28 215.36 -307.58 183.24 -327.73 149.24 -344.54 113.73 -357.84 77.05 -367.49 39.59 -373.39" class="l11d1"/><polygon points="28.92 -524.2 25.61 -464.29 49.09 -463 95.54 -455.69 141.02 -443.72 185.06 -427.23 227.22 -406.39 267.05 -381.39 304.16 -352.51 338.17 -320.03 368.73 -284.28 395.52 -245.64 418.28 -204.49 436.78 -161.25 450.82 -116.37 460.26 -70.3 465 -23.51 465 0 525 0 525 -26.55 519.64 -79.37 508.99 -131.38 493.14 -182.06 472.26 -230.87 446.56 -277.33 416.31 -320.97 381.8 -361.32 343.41 -398 301.51 -430.61 256.53 -458.82 208.94 -482.36 159.22 -500.98 107.87 -514.48 55.42 -522.74" class="l11d1"/><polygon points="31.67 -574.13 14.6 -264.6 27.98 -263.86 54.45 -259.69 80.37 -252.87 105.47 -243.48 129.49 -231.6 152.19 -217.35 173.34 -200.89 192.72 -182.38 210.14 -162.01 225.41 -139.99 238.38 -116.54 248.92 -91.9 256.92 -66.32 262.3 -40.06 265 -13.4 265 0 575 0 575 -29.08 569.13 -86.93 557.46 -143.9 540.1 -199.4 517.23 -252.86 489.09 -303.75 455.95 -351.53 418.17 -395.74 376.11 -435.9 330.23 -471.62 280.97 -502.52 228.84 -528.3 174.38 -548.69 118.14 -563.48 60.7 -572.53" class="l14d0"/><polygon points="465 0 375 0 375 -18.967 371.179 -56.697 363.563 -93.846 352.241 -130.046 337.33 -164.912 318.976 -198.094 297.359 -229.256 272.71 -258.093 245.295 -284.286 215.368 -307.57 183.24 -327.733 149.242 -344.544 113.73 -357.84 77.054 -367.491 39.593 -373.383 20.651 -374.428 25.609 -464.292 49.087 -462.997 95.546 -455.689 141.03 -443.72 185.058 -427.236 227.22 -406.387 267.052 -381.39 304.165 -352.514 338.17 -320.027 368.721 -284.284 395.524 -245.646 418.29 -204.488 436.779 -161.254 450.817 -116.374 460.261 -70.303 465 -23.513" class="l16d0"/><text class="l225t0" dominant-baseline="central" text-anchor="middle" transform="scale(1 -1) translate(0.0 -0.0)">base</text></g><g id="Waveguide$Coplanar$Curved$3"><polygon points="105 -360 88.2 -302.4 103.18 -298.03 132.13 -286.37 159.79 -271.91 185.88 -254.79 210.16 -235.17 232.37 -213.24 252.31 -189.23 269.78 -163.37 284.6 -135.9 296.64 -107.11 305.78 -77.26 311.92 -46.66 315 -15.61 315 0 375 0 375 -18.58 371.33 -55.55 364.02 -91.98 353.15 -127.51 338.81 -161.79 321.16 -194.48 300.37 -225.28 276.63 -253.86 250.19 -279.96 221.29 -303.32 190.23 -323.7 157.3 -340.92 122.83 -354.8" class="l11d1"/><polygon points="147 -504 130.2 -446.4 152.31 -439.95 195.05 -422.74 235.88 -401.39 274.4 -376.11 310.23 -347.15 343.02 -314.79 372.46 -279.34 398.24 -241.16 420.13 -200.62 437.9 -158.11 451.38 -114.06 460.45 -68.88 465 -23.04 465 0 525 0 525 -26.01 519.86 -77.77 509.63 -128.77 494.4 -178.51 474.34 -226.51 449.63 -272.28 420.52 -315.39 387.28 -355.41 350.26 -391.94 309.81 -424.64 266.32 -453.18 220.22 -477.29 171.97 -496.72" class="l11d1"/><polygon points="161 -552 74.2 -254.4 86.8 -250.72 111.16 -240.92 134.43 -228.75 156.38 -214.34 176.8 -197.84 195.49 -179.39 212.26 -159.19 226.96 -137.44 239.43 -114.33 249.56 -90.11 257.24 -65 262.4 -39.26 265 -13.13 265 0 575 0 575 -28.49 569.37 -85.18 558.16 -141.04 541.49 -195.51 519.51 -248.08 492.45 -298.21 460.56 -345.42 424.17 -389.25 383.62 -429.27 339.31 -465.09 291.68 -496.35 241.19 -522.74 188.35 -544.02" class="l14d0"/><polygon points="465 0 375 0 375 -18.582 371.331 -55.553 364.019 -91.979 353.143 -127.508 338.813 -161.785 321.16 -194.483 300.365 -225.278 276.634 -253.857 250.19 -279.953 221.285 -303.313 190.22 -323.707 157.306 -340.918 122.828 -354.795 104.989 -360.003 130.211 -446.397 152.312 -439.945 195.054 -422.742 235.88 -401.393 274.395 -376.107 310.23 -347.147 343.026 -314.783 372.455 -279.342 398.24 -241.157 420.127 -200.615 437.897 -158.112 451.381 -114.061 460.449 -68.887 465 -23.038" class="l16d0"/><text class="l225t0" dominant-baseline="central" text-anchor="middle" transform="scale(1 -1) translate(0.0 -0.0)">base</text></g><g id="Waveguide$Coplanar$2"><polygon points="1147 71 1107 101 1293 349 1333 319" class="l14d0"/><polygon points="1107 101 1067 131 1253 379 1293 349" class="l14d0"/><text class="l225t0" dominant-baseline="central" text-anchor="middle" transform="scale(1 -1) translate(0.0 -0.0)">base</text><text class="l225t0" dominant-baseline="central" text-anchor="middle" transform="scale(1 -1) translate(1200.0 -225.0)">port_a</text><text class="l225t0" dominant-baseline="central" text-anchor="middle" transform="scale(1 -1) translate(1536.0 27.0)">port_a_corner</text><text class="l225t0" dominant-baseline="central" text-anchor="middle" transform="scale(1 -1) translate(1200.0 -225.0)">port_b</text><text class="l225t0" dominant-baseline="central" text-anchor="middle" transform="scale(1 -1) translate(864.0 -477.0)">port_b_corner</text><text class="l39t0" dominant-baseline="central" text-anchor="middle" transform="scale(1 -1) translate(1200.0 -225.0)">a</text><text class="l39t0" dominant-baseline="central" text-anchor="middle" transform="scale(1 -1) translate(1200.0 -225.0)">b</text><use transform="translate(1200.0 225.0) rotate(143.13010235415598) scale(1.0)" xlink:href="#Waveguide$Coplanar$Straight$3"/><use transform="translate(1320.0 660.0) rotate(233.13010235415598) scale(1.0)" xlink:href="#Waveguide$Coplanar$Curved$1"/><use transform="translate(900.0 659.99) rotate(90.0)" xlink:href="#Waveguide$Coplanar$Straight$4"/><use transform="translate(1320.0 1140.0) rotate(180.0)" xlink:href="#Waveguide$Coplanar$Curved$1"/><use transform="translate(1067.99 1475.9899999999998) rotate(36.86989764584401) scale(1.0)" xlink:href="#Waveguide$Coplanar$Straight$5"/><use transform="translate(1500.0 1275.0) rotate(126.86989764584402) scale(1.0)" xlink:href="#Waveguide$Coplanar$Curved$2"/><use transform="translate(1751.9900000000002 1611.01) rotate(323.13010235415595) scale(1.0)" xlink:href="#Waveguide$Coplanar$Straight$5"/><use transform="translate(1680.0 1140.0) rotate(53.13010235415599) scale(1.0)" xlink:href="#Waveguide$Coplanar$Curved$1"/><use transform="translate(2100.0 1140.01) rotate(270.0)" xlink:href="#Waveguide$Coplanar$Straight$4"/><use transform="translate(1680.0 660.0)" xlink:href="#Waveguide$Coplanar$Curved$1"/><use transform="translate(1932.01 324.01000000000005) rotate(216.86989764584402) scale(1.0)" xlink:href="#Waveguide$Coplanar$Straight$6"/><use transform="translate(1500.0 525.0) rotate(306.86989764584405) scale(1.0)" xlink:href="#Waveguide$Coplanar$Curved$3"/><use transform="translate(1248.01 188.99) rotate(143.13010235415598) scale(1.0)" xlink:href="#Waveguide$Coplanar$Straight$7"/></g><g id="Waveguide$Coplanar$1"><polygon points="573.86 -71.62 541.59 -33.42 778.41 166.62 810.67 128.42" class="l14d0"/><polygon points="766.39 1613.48 553.61 1838.92 589.97 1873.24 802.75 1647.8" class="l14d0"/><text class="l225t0" dominant-baseline="central" text-anchor="middle" transform="scale(1 -1) translate(0.0 -0.0)">base</text><text class="l225t0" dominant-baseline="central" text-anchor="middle" transform="scale(1 -1) translate(660.0 -66.6)">port_a</text><text class="l225t0" dominant-baseline="central" text-anchor="middle" transform="scale(1 -1) translate(931.02 254.25)">port_a_corner</text><text class="l225t0" dominant-baseline="central" text-anchor="middle" transform="scale(1 -1) translate(660.0 -1726.2)">port_b</text><text class="l225t0" dominant-baseline="central" text-anchor="middle" transform="scale(1 -1) translate(965.4399999999999 -2014.4900000000002)">port_b_corner</text><text class="l39t0" dominant-baseline="central" text-anchor="middle" transform="scale(1 -1) translate(660.0 -66.6)">a</text><text class="l39t0" dominant-baseline="central" text-anchor="middle" transform="scale(1 -1) translate(660.0 -1726.2)">b</text><use transform="translate(660.0 66.6) rotate(130.18792570921784) scale(1.0)" xlink:href="#Waveguide$Coplanar$Straight$1"/><use transform="translate(457.34000000000003 957.38) rotate(220.18792570921786) scale(1.0)" xlink:href="#Waveguide$Coplanar$Curved"/><use transform="translate(169.05 1262.81) rotate(43.34529916691872) scale(1.0)" xlink:href="#Waveguide$Coplanar$Straight$2"/></g><g id="Waveguide$Coplanar$Straight$1"><polygon points="0 45 0 105 811.29 105 811.29 45" class="l11d1"/><polygon points="0 -105 0 -45 811.29 -45 811.29 -105" class="l11d1"/><polygon points="0 -155 0 155 811.29 155 811.29 -155" class="l14d0"/><polygon points="0 -45 0 45 811.29 45 811.29 -45" class="l16d0"/><text class="l225t0" dominant-baseline="central" text-anchor="middle" transform="scale(1 -1) translate(0.0 -0.0)">base</text></g><g id="Waveguide$Coplanar$Straight$10"><polygon points="0 45 0 105 435.01 105 435.01 45" class="l11d1"/><polygon points="0 -105 0 -45 435.01 -45 435.01 -105" class="l11d1"/><polygon points="0 -155 0 155 435.01 155 435.01 -155" class="l14d0"/><polygon points="0 -45 0 45 435.01 45 435.01 -45" class="l16d0"/><text class="l225t0" dominant-baseline="central" text-anchor="middle" transform="scale(1 -1) translate(0.0 -0.0)">base</text></g><g id="Waveguide$Coplanar$Curved$1"><polygon points="225 -300 189 -252 201.99 -242.25 225.84 -220.19 247.29 -195.8 266.11 -169.33 282.12 -141.06 295.13 -111.3 305.01 -80.35 311.66 -48.55 315 -16.24 315 0 375 0 375 -19.34 371.02 -57.8 363.11 -95.66 351.35 -132.49 335.86 -167.93 316.8 -201.58 294.39 -233.09 268.86 -262.14 240.47 -288.4" class="l11d1"/><polygon points="315 -420 279 -372 298.18 -357.61 333.38 -325.05 365.04 -289.04 392.84 -249.96 416.46 -208.23 435.67 -164.29 450.26 -118.61 460.07 -71.67 465 -23.98 465 0 525 0 525 -27.07 519.43 -80.92 508.35 -133.92 491.88 -185.49 470.2 -235.1 443.52 -282.21 412.15 -326.33 376.4 -366.99 336.66 -403.76" class="l11d1"/><polygon points="345 -460 159 -212 169.93 -203.8 189.99 -185.24 208.04 -164.72 223.87 -142.45 237.34 -118.67 248.28 -93.63 256.6 -67.6 262.19 -40.85 265 -13.66 265 0 575 0 575 -29.65 568.9 -88.63 556.77 -146.67 538.73 -203.16 514.98 -257.49 485.76 -309.09 451.4 -357.41 412.24 -401.94 368.72 -442.21" class="l14d0"/><polygon points="465 0 375 0 375 -19.342 371.027 -57.801 363.108 -95.65 351.347 -132.494 335.857 -167.929 316.803 -201.582 294.393 -233.098 268.859 -262.132 240.464 -288.402 225 -300 279 -372 298.176 -357.618 333.381 -325.048 365.047 -289.042 392.837 -249.958 416.463 -208.231 435.673 -164.286 450.252 -118.61 460.073 -71.679 465 -23.978" class="l16d0"/><text class="l225t0" dominant-baseline="central" text-anchor="middle" transform="scale(1 -1) translate(0.0 -0.0)">base</text></g><g id="Waveguide$Coplanar$Straight$6"><polygon points="0 45 0 105 225.02 105 225.02 45" class="l11d1"/><polygon points="0 -105 0 -45 225.02 -45 225.02 -105" class="l11d1"/><polygon points="0 -155 0 155 225.02 155 225.02 -155" class="l14d0"/><polygon points="0 -45 0 45 225.02 45 225.02 -45" class="l16d0"/><text class="l225t0" dominant-baseline="central" text-anchor="middle" transform="scale(1 -1) translate(0.0 -0.0)">base</text></g><g id="Waveguide$Coplanar$Straight$9"><polygon points="0 45 0 105 225.02 105 225.02 45" class="l11d1"/><polygon points="0 -105 0 -45 225.02 -45 225.02 -105" class="l11d1"/><polygon points="0 -155 0 155 225.02 155 225.02 -155" class="l14d0"/><polygon points="0 -45 0 45 225.02 45 225.02 -45" class="l16d0"/><text class="l225t0" dominant-baseline="central" text-anchor="middle" transform="scale(1 -1) translate(0.0 -0.0)">base</text></g><g id="Waveguide$Composite$1"><text class="l225t0" dominant-baseline="central" text-anchor="middle" transform="scale(1 -1) translate(0.0 -0.0)">base</text><text class="l225t0" dominant-baseline="central" text-anchor="middle" transform="scale(1 -1) translate(660.0 -66.6)">port_a</text><text class="l225t0" dominant-baseline="central" text-anchor="middle" transform="scale(1 -1) translate(931.02 254.25)">port_a_corner</text><text class="l225t0" dominant-baseline="central" text-anchor="middle" transform="scale(1 -1) translate(660.0 -1726.2)">port_b</text><text class="l225t0" dominant-baseline="central" text-anchor="middle" transform="scale(1 -1) translate(965.4399999999999 -2014.4900000000002)">port_b_corner</text><text class="l39t0" dominant-baseline="central" text-anchor="middle" transform="scale(1 -1) translate(660.0 -66.6)">a</text><text class="l39t0" dominant-baseline="central" text-anchor="middle" transform="scale(1 -1) translate(660.0 -1726.2)">b</text><use transform="translate(0.0 0.0)" xlink:href="#Waveguide$Coplanar$1"/></g><g id="Waveguide$Coplanar$Straight"><polygon points="0 45 0 105 1800 105 1800 45" class="l11d1"/><polygon points="0 -105 0 -45 1800 -45 1800 -105" class="l11d1"/><polygon points="0 -155 0 155 1800 155 1800 -155" class="l14d0"/><polygon points="0 -45 0 45 1800 45 1800 -45" class="l16d0"/><text class="l225t0" dominant-baseline="central" text-anchor="middle" transform="scale(1 -1) translate(0.0 -0.0)">base</text></g><g id="Airbridge$Rectangular"><polygon points="-170 170 -170 450 170 450 170 170" class="l14d0"/><polygon points="-170 -450 -170 -170 170 -170 170 -450" class="l14d0"/><polygon points="-120 220 -120 400 120 400 120 220" class="l28d3"/><polygon points="-120 -400 -120 -220 120 -220 120 -400" class="l28d3"/><polygon points="-100 -380 -100 380 100 380 100 -380" class="l29d3"/><text class="l225t0" dominant-baseline="central" text-anchor="middle" transform="scale(1 -1) translate(0.0 -0.0)">base</text><text class="l225t0" dominant-baseline="central" text-anchor="middle" transform="scale(1 -1) translate(0.0 -220.0)">port_a</text><text class="l225t0" dominant-baseline="central" text-anchor="middle" transform="scale(1 -1) translate(0.0 -640.0)">port_a_corner</text><text class="l225t0" dominant-baseline="central" text-anchor="middle" transform="scale(1 -1) translate(0.0 220.0)">port_b</text><text class="l225t0" dominant-baseline="central" text-anchor="middle" transform="scale(1 -1) translate(0.0 640.0)">port_b_corner</text><text class="l39t0" dominant-baseline="central" text-anchor="middle" transform="scale(1 -1) translate(0.0 -220.0)">a</text><text class="l39t0" dominant-baseline="central" text-anchor="middle" transform="scale(1 -1) translate(0.0 220.0)">b</text></g><g id="Waveguide$Coplanar$Straight$3"><polygon points="0 45 0 105 165.01 105 165.01 45" class="l11d1"/><polygon points="0 -105 0 -45 165.01 -45 165.01 -105" class="l11d1"/><polygon points="0 -155 0 155 165.01 155 165.01 -155" class="l14d0"/><polygon points="0 -45 0 45 165.01 45 165.01 -45" class="l16d0"/><text class="l225t0" dominant-baseline="central" text-anchor="middle" transform="scale(1 -1) translate(0.0 -0.0)">base</text></g><g id="Waveguide$Composite"><text class="l225t0" dominant-baseline="central" text-anchor="middle" transform="scale(1 -1) translate(0.0 -0.0)">base</text><text class="l225t0" dominant-baseline="central" text-anchor="middle" transform="scale(1 -1) translate(-300.0 -0.0)">port_a</text><text class="l225t0" dominant-baseline="central" text-anchor="middle" transform="scale(1 -1) translate(-300.0 420.0)">port_a_corner</text><text class="l225t0" dominant-baseline="central" text-anchor="middle" transform="scale(1 -1) translate(-300.0 -1800.0)">port_b</text><text class="l225t0" dominant-baseline="central" text-anchor="middle" transform="scale(1 -1) translate(-300.0 -2220.0)">port_b_corner</text><text class="l39t0" dominant-baseline="central" text-anchor="middle" transform="scale(1 -1) translate(-300.0 -0.0)">a</text><text class="l39t0" dominant-baseline="central" text-anchor="middle" transform="scale(1 -1) translate(-300.0 -1800.0)">b</text><use transform="translate(0.0 0.0)" xlink:href="#Waveguide$Coplanar"/></g><g id="Waveguide$Coplanar$Straight$2"><polygon points="0 45 0 105 675.1 105 675.1 45" class="l11d1"/><polygon points="0 -105 0 -45 675.1 -45 675.1 -105" class="l11d1"/><polygon points="0 -155 0 155 675.1 155 675.1 -155" class="l14d0"/><polygon points="0 -45 0 45 675.1 45 675.1 -45" class="l16d0"/><text class="l225t0" dominant-baseline="central" text-anchor="middle" transform="scale(1 -1) translate(0.0 -0.0)">base</text></g><g id="Waveguide$Coplanar$Straight$4"><polygon points="0 45 0 105 480.02 105 480.02 45" class="l11d1"/><polygon points="0 -105 0 -45 480.02 -45 480.02 -105" class="l11d1"/><polygon points="0 -155 0 155 480.02 155 480.02 -155" class="l14d0"/><polygon points="0 -45 0 45 480.02 45 480.02 -45" class="l16d0"/><text class="l225t0" dominant-baseline="central" text-anchor="middle" transform="scale(1 -1) translate(0.0 -0.0)">base</text></g><g id="Waveguide$Coplanar$Curved$2"><polygon points="105 -360 88.2 -302.4 103.18 -298.03 132.13 -286.37 159.79 -271.91 185.88 -254.79 210.16 -235.17 232.37 -213.24 252.31 -189.23 269.78 -163.37 284.6 -135.9 296.64 -107.11 305.78 -77.26 311.92 -46.66 315 -15.61 315 0 375 0 375 -18.58 371.33 -55.55 364.02 -91.98 353.15 -127.51 338.81 -161.79 321.16 -194.48 300.37 -225.28 276.63 -253.86 250.19 -279.96 221.29 -303.32 190.23 -323.7 157.3 -340.92 122.83 -354.8" class="l11d1"/><polygon points="147 -504 130.2 -446.4 152.31 -439.95 195.05 -422.74 235.88 -401.39 274.4 -376.11 310.23 -347.15 343.02 -314.79 372.46 -279.34 398.24 -241.16 420.13 -200.62 437.9 -158.11 451.38 -114.06 460.45 -68.88 465 -23.04 465 0 525 0 525 -26.01 519.86 -77.77 509.63 -128.77 494.4 -178.51 474.34 -226.51 449.63 -272.28 420.52 -315.39 387.28 -355.41 350.26 -391.94 309.81 -424.64 266.32 -453.18 220.22 -477.29 171.97 -496.72" class="l11d1"/><polygon points="161 -552 74.2 -254.4 86.8 -250.72 111.16 -240.92 134.43 -228.75 156.38 -214.34 176.8 -197.84 195.49 -179.39 212.26 -159.19 226.96 -137.44 239.43 -114.33 249.56 -90.11 257.24 -65 262.4 -39.26 265 -13.13 265 0 575 0 575 -28.49 569.37 -85.18 558.16 -141.04 541.49 -195.51 519.51 -248.08 492.45 -298.21 460.56 -345.42 424.17 -389.25 383.62 -429.27 339.31 -465.09 291.68 -496.35 241.19 -522.74 188.35 -544.02" class="l14d0"/><polygon points="465 0 375 0 375 -18.582 371.331 -55.553 364.019 -91.979 353.143 -127.508 338.813 -161.785 321.16 -194.483 300.365 -225.278 276.634 -253.857 250.19 -279.953 221.285 -303.313 190.22 -323.707 157.306 -340.918 122.828 -354.795 104.989 -360.003 130.211 -446.397 152.312 -439.945 195.054 -422.742 235.88 -401.393 274.395 -376.107 310.23 -347.147 343.026 -314.783 372.455 -279.342 398.24 -241.157 420.127 -200.615 437.897 -158.112 451.381 -114.061 460.449 -68.887 465 -23.038" class="l16d0"/><text class="l225t0" dominant-baseline="central" text-anchor="middle" transform="scale(1 -1) translate(0.0 -0.0)">base</text></g><g id="Waveguide$Coplanar"><polygon points="-455 -50 -455 0 -145 0 -145 -50" class="l14d0"/><polygon points="-455 1800 -455 1850 -145 1850 -145 1800" class="l14d0"/><text class="l225t0" dominant-baseline="central" text-anchor="middle" transform="scale(1 -1) translate(0.0 -0.0)">base</text><text class="l225t0" dominant-baseline="central" text-anchor="middle" transform="scale(1 -1) translate(-300.0 -0.0)">port_a</text><text class="l225t0" dominant-baseline="central" text-anchor="middle" transform="scale(1 -1) translate(-300.0 420.0)">port_a_corner</text><text class="l225t0" dominant-baseline="central" text-anchor="middle" transform="scale(1 -1) translate(-300.0 -1800.0)">port_b</text><text class="l225t0" dominant-baseline="central" text-anchor="middle" transform="scale(1 -1) translate(-300.0 -2220.0)">port_b_corner</text><text class="l39t0" dominant-baseline="central" text-anchor="middle" transform="scale(1 -1) translate(-300.0 -0.0)">a</text><text class="l39t0" dominant-baseline="central" text-anchor="middle" transform="scale(1 -1) translate(-300.0 -1800.0)">b</text><use transform="translate(-300.0 0.0) rotate(90.0)" xlink:href="#Waveguide$Coplanar$Straight"/></g><g id="Waveguide$Composite$2"><text class="l225t0" dominant-baseline="central" text-anchor="middle" transform="scale(1 -1) translate(0.0 -0.0)">base</text><text class="l225t0" dominant-baseline="central" text-anchor="middle" transform="scale(1 -1) translate(1200.0 -225.0)">port_a</text><text class="l225t0" dominant-baseline="central" text-anchor="middle" transform="scale(1 -1) translate(1536.0 27.0)">port_a_corner</text><text class="l225t0" dominant-baseline="central" text-anchor="middle" transform="scale(1 -1) translate(1200.0 -225.0)">port_b</text><text class="l225t0" dominant-baseline="central" text-anchor="middle" transform="scale(1 -1) translate(864.0 -477.0)">port_b_corner</text><text class="l39t0" dominant-baseline="central" text-anchor="middle" transform="scale(1 -1) translate(1200.0 -225.0)">a</text><text class="l39t0" dominant-baseline="central" text-anchor="middle" transform="scale(1 -1) translate(1200.0 -225.0)">b</text><use transform="translate(1800.0 225.0) rotate(216.86989764584402) scale(1.0)" xlink:href="#Airbridge$Rectangular"/><use transform="translate(0.0 0.0)" xlink:href="#Waveguide$Coplanar$2"/></g></defs><rect width="4722.3" height="2539.54" x="-669.65" y="-2087.89" fill="#222" stroke="none"/><g id="logo" transform="scale(1 -1)"><use transform="translate(0.0 0.0)" xlink:href="#Waveguide$Composite"/><use transform="translate(0.0 0.0)" xlink:href="#Waveguide$Composite$1"/><use transform="translate(0.0 0.0)" xlink:href="#Waveguide$Composite$2"/><use transform="translate(0.0 0.0)" xlink:href="#Waveguide$Composite$3"/></g></svg>